<svg height="511pt" viewBox="-42 0 511 511.90306" width="511pt" xmlns="http://www.w3.org/2000/svg"><path d="m411.582031 238.835938c-51.625 51.628906-61.097656 131.328124-114.261719 182.101562-4.464843 4.050781-8.574218 8.476562-12.289062 13.226562-10.75 14.507813-11.6875 31.660157-11.6875 48.980469v3.160157c-.03125 9.414062-7.65625 17.035156-17.066406 17.066406h-136.535156c-9.414063-.03125-17.039063-7.652344-17.066407-17.066406v-43.265626c.050781-3.398437-.929687-6.730468-2.816406-9.558593-5.820313-8.335938-10.578125-17.363281-14.164063-26.878907l-75.09375-217.769531c-4.734374-12.957031 1.183594-27.382812 13.652344-33.28125 6.851563-2.917969 14.628906-2.730469 21.332032.511719 5.15625 2.578125 9.320312 6.777344 11.863281 11.945312l-29.097657-84.648437c-4.597656-13.386719 2.527344-27.960937 15.914063-32.554687 13.382813-4.59375 27.957031 2.53125 32.554687 15.914062l51.539063 150.1875c3.714844 10.800781 14.136719 17.835938 25.542969 17.242188s21.039062-8.671876 23.609375-19.804688l43.09375-186.109375c1.722656-7.402344 6.648437-13.65625 13.441406-17.070313 6.792969-3.414062 14.75-3.628906 21.714844-.59375 11.511719 5.492188 17.519531 18.367188 14.335937 30.71875l-4.007812 17.066407c4.234375-13.097657 18.070312-20.503907 31.316406-16.761719 13.25 3.742188 21.164062 17.292969 17.917969 30.671875l-40.789063 175.105469c-9.726562 51.199218 15.875 51.199218 15.875 51.199218 3.359375-1.851562 6.53125-4.023437 9.46875-6.484374 2.253906-1.738282 4.394532-3.621094 6.402344-5.632813 6.867188-6.652344 12.992188-14.035156 18.261719-22.015625 17.066406-25.601562 52.90625-59.734375 69.972656-59.734375s34.132813 17.066406 17.066406 34.132813zm0 0" fill="#e3e7f2"/><path d="m274.5625 247.371094c-4.351562 22.699218-1.707031 35.328125 2.558594 42.324218-.9375.851563-1.875 1.621094-2.816406 2.390626-2.9375 2.460937-6.109376 4.632812-9.46875 6.484374 0 0-25.601563 0-15.875-51.199218l40.789062-175.105469c2.605469-10.984375-2.324219-22.371094-12.117188-27.988281 8.835938-5.09375 19.851563-4.457032 28.042969 1.621094 8.191407 6.074218 11.992188 16.433593 9.675781 26.367187zm0 0" fill="#a4c2f7"/><path d="m411.609375 238.835938c-51.628906 51.628906-61.101563 131.328124-114.261719 182.101562-4.464844 4.050781-8.578125 8.476562-12.289062 13.226562-10.753906 14.507813-11.691406 31.660157-11.691406 48.980469v3.160157c-.027344 9.414062-7.652344 17.035156-17.066407 17.066406h-25.601562c9.414062-.03125 17.039062-7.652344 17.070312-17.066406v-3.160157c0-17.320312.9375-34.472656 11.6875-48.980469 3.714844-4.75 7.824219-9.175781 12.289063-13.226562 53.164062-50.773438 62.636718-130.472656 114.261718-182.101562 5.03125-3.785157 7.6875-9.949219 6.988282-16.207032-.703125-6.257812-4.65625-11.679687-10.402344-14.257812 3.640625-2.140625 7.734375-3.398438 11.949219-3.667969 17.066406 0 34.132812 17.066406 17.066406 34.132813zm0 0" fill="#a4c2f7"/><path d="m139.734375 230.898438c-6.632813 3.824218-14.628906 4.46875-21.789063 1.753906-7.15625-2.710938-12.722656-8.488282-15.160156-15.746094l-51.539062-150.1875c-2.007813-5.847656-6.113282-10.742188-11.519532-13.738281 1.4375-.847657 2.953126-1.5625 4.519532-2.132813 13.382812-4.585937 27.953125 2.507813 32.597656 15.871094l51.542969 150.1875c1.898437 5.917969 5.949219 10.914062 11.347656 13.992188zm0 0" fill="#a4c2f7"/><path d="m10.601562 188.832031 75.09375 217.769531c3.585938 9.515626 8.34375 18.542969 14.164063 26.878907 1.886719 2.828125 2.867187 6.160156 2.816406 9.558593v43.265626c.027344 9.414062 7.652344 17.035156 17.066407 17.066406h25.601562c-9.414062-.03125-17.039062-7.652344-17.066406-17.066406v-43.265626c.050781-3.398437-.933594-6.730468-2.816406-9.558593-5.824219-8.335938-10.582032-17.363281-14.167969-26.878907l-75.09375-217.769531c-4.226563-11.867187.34375-25.078125 11-31.796875-.535157-.316406-1.046875-.691406-1.613281-.972656-6.703126-3.242188-14.480469-3.429688-21.332032-.511719-12.46875 5.898438-18.386718 20.324219-13.652344 33.28125zm0 0" fill="#fff"/><path d="m65.410156 46.964844c-4.859375-2.832032-10.515625-3.980469-16.09375-3.277344-1.726562.21875-3.425781.617188-5.070312 1.1875-13.320313 4.636719-20.410156 19.152344-15.871094 32.511719l24.507812 71.285156c6.078126-1.796875 12.601563-1.289063 18.332032 1.417969 5.152344 2.578125 9.316406 6.773437 11.859375 11.945312l-29.097657-84.648437c-3.941406-11.570313.847657-24.3125 11.433594-30.421875zm0 0" fill="#fff"/><path d="m18.671875 186.050781 36.164063 104.875 38.929687 112.894531-16.136719 5.5625-38.929687-112.894531-36.164063-104.875zm0 0" fill="#fff"/><g fill="#428dff"><path d="m40.5625 257.125c2.023438-4.261719.269531-9.355469-3.953125-11.460938l-1.542969-.546874c-.554687-.15625-1.128906-.234376-1.707031-.230469-.535156-.082031-1.078125-.082031-1.613281 0-.578125.089843-1.148438.226562-1.707032.402343-2.125.761719-3.878906 2.300782-4.914062 4.308594-1.945312 4.261719-.207031 9.300782 3.949219 11.460938 1.023437.457031 2.125.71875 3.242187.773437 1.113282.082031 2.230469-.0625 3.285156-.417969 2.136719-.75 3.910157-2.285156 4.960938-4.289062zm0 0"/><path d="m417.65625 244.871094c8.597656-7.296875 11.6875-19.199219 7.734375-29.757813-5.679687-11.8125-17.730469-19.214843-30.832031-18.945312-23.144532 0-61.910156 40.730469-77.109375 63.515625-4.894531 7.410156-10.566407 14.273437-16.917969 20.480468-2.054688 1.945313-4.175781 3.800782-6.367188 5.570313-2.140624 1.707031-3.960937 2.980469-5.25 3.816406-1.457031-.671875-2.722656-1.707031-3.667968-3.003906-2.832032-3.710937-6.894532-13.507813-2.390625-37.222656l40.78125-175.105469c2.761719-12.0625-1.207031-24.679688-10.371094-32.992188-9.167969-8.316406-22.109375-11.035156-33.847656-7.113281.058593-17.308593-12.898438-31.898437-30.09375-33.886719-17.195313-1.988281-33.136719 9.261719-37.03125 26.128907l-43.082031 186.027343c-1.582032 7.5625-8.152344 13.042969-15.875 13.242188-7.625.578125-14.640626-4.195312-16.902344-11.5l-51.550782-150.222656c-5.433593-15.777344-21.480468-25.316406-37.9375-22.542969-16.457031 2.769531-28.5 17.035156-28.46875 33.722656-.011718 3.773438.609376 7.523438 1.835938 11.09375l20.429688 59.417969c-6.679688-1.246094-13.574219-.496094-19.824219 2.15625-16.597657 7.636719-24.578125 26.710938-18.363281 43.886719l11.09375 32.265625c.988281 2.886718 3.445312 5.023437 6.4375 5.609375 2.996093.585937 6.074218-.472657 8.078124-2.773438 2.003907-2.300781 2.628907-5.496093 1.636719-8.382812l-11.09375-32.246094c-3.242187-8.730469.613281-18.503906 8.941407-22.664063 4.542968-1.941406 9.695312-1.832031 14.148437.296876 3.484375 1.753906 6.304687 4.59375 8.03125 8.089843.171875.25.351563.492188.546875.726563.019531.339844.066406.679687.136719 1.015625l30.480469 89.15625c1.183593 3.453125 4.429687 5.769531 8.082031 5.769531.9375-.003906 1.867187-.15625 2.753906-.453125 2.144531-.734375 3.90625-2.285156 4.90625-4.316406.996094-2.035157 1.144531-4.378907.410156-6.523438l-30.515625-89.199219c-.25-.574218-.570312-1.117187-.945312-1.621093-.023438-.382813-.078125-.765625-.164063-1.140625l-29.121093-84.652344c-3.066407-8.929688 1.691406-18.648438 10.617187-21.710938 8.929687-3.066406 18.652344 1.691407 21.714844 10.617188l51.53125 150.1875c4.953125 14.402344 18.847656 23.78125 34.054687 22.988281 15.210938-.789062 28.054688-11.5625 31.480469-26.402343l43.09375-186.027344c1.164063-4.949219 4.460937-9.125 9.003906-11.40625 4.515625-2.289063 9.816407-2.433594 14.445313-.394532 7.703125 3.871094 11.625 12.625 9.386718 20.949219l-4.007812 17.066407-45.296875 180.292968c-1.152344 4.570313 1.617187 9.207032 6.1875 10.359375.691406.171875 1.398437.257813 2.109375.257813 3.90625-.003906 7.3125-2.664063 8.265625-6.453125l45.261719-179.984375c2.957031-8.582032 12.113281-13.347656 20.835937-10.847656 8.726563 2.496093 13.96875 11.390624 11.933594 20.234374l-40.859375 175.453126c-4.566406 24.003906-2.464844 41.5 6.230469 52.003906.1875.21875.375.367187.554687.578125-3.867187 1.453125-7.808594 2.664062-11.699218 3.832031-12.988282 3.433594-24.238282 11.570312-31.574219 22.828125-4.800781 7.371094-7.414063 15.949219-7.542969 24.746094 0 4.710937 3.820312 8.53125 8.535156 8.53125 4.710938 0 8.53125-3.820313 8.53125-8.53125.132813-5.578125 1.835938-11.003907 4.90625-15.660157 5.136719-7.761718 12.996094-13.316406 22.023438-15.574218 9.074218-2.359375 17.800781-5.886719 25.96875-10.484375 2.191406-1.324219 4.265625-2.902344 6.347656-4.378907.855469-.554687 1.792969-1.210937 2.84375-1.960937 1.046875-.753906 2.199219-1.621094 3.277344-2.476563 2.277344-1.808593 4.8125-3.960937 7.585937-6.605468l.152344-.167969c.476563-.453125 1.015625-.855469 1.484375-1.300781.300781-.347656.566406-.722656.800781-1.117188 6.339844-6.402344 12.054688-13.394531 17.066407-20.878906 17.417968-26.121094 50.9375-55.917969 62.910156-55.917969 6.1875-.1875 11.976562 3.042969 15.070312 8.402344 1.382813 3.347656 0 7.101563-4.039062 11.164063-26.453125 26.453124-42.195313 59.792968-57.453125 92.066406-15.847657 33.507812-30.8125 65.167968-56.761719 89.949218-4.796875 4.367188-9.210938 9.136719-13.195312 14.257813-12.339844 16.648437-13.371094 35.839844-13.371094 54.066406v3.160157c0 4.710937-3.820313 8.53125-8.53125 8.53125h-136.535156c-4.714844 0-8.535157-3.820313-8.535157-8.53125v-43.265626c.054688-5.136718-1.457031-10.167968-4.332031-14.421874-5.363281-7.699219-9.765625-16.023438-13.109375-24.789063l-41.710937-120.96875c-.972657-2.90625-3.429688-5.070313-6.4375-5.664063-3.007813-.59375-6.105469.46875-8.109376 2.789063-2.007812 2.320313-2.613281 5.539063-1.589843 8.429687l41.710937 120.96875c3.835938 10.242188 8.941406 19.960938 15.199219 28.929688.90625 1.40625 1.363281 3.054688 1.3125 4.726562v43.265626c0 14.136718 11.464844 25.597656 25.601563 25.597656h136.535156c14.136718 0 25.597656-11.460938 25.597656-25.597656v-3.160157c0-16.015625.769531-31.425781 10.027344-43.917969 3.425781-4.351562 7.210937-8.402343 11.316406-12.121093 28.160156-26.921875 44.535156-61.496094 60.347656-94.941407 15.308594-32.382812 29.769532-62.964843 54.089844-87.292968zm0 0"/><path d="m239.226562 460.703125c4.710938 0 8.53125-3.820313 8.53125-8.535156 0-4.710938-3.820312-8.53125-8.53125-8.53125h-8.535156c-4.710937 0-8.53125 3.820312-8.53125 8.53125 0 4.714843 3.820313 8.535156 8.53125 8.535156zm0 0"/><path d="m196.558594 460.703125c4.714844 0 8.535156-3.820313 8.535156-8.535156 0-4.710938-3.820312-8.53125-8.535156-8.53125h-59.734375c-4.710938 0-8.53125 3.820312-8.53125 8.53125 0 4.714843 3.820312 8.535156 8.53125 8.535156zm0 0"/></g></svg>