<svg xmlns="http://www.w3.org/2000/svg" xmlns:xlink="http://www.w3.org/1999/xlink" width="419.848" height="82.285" viewBox="0 0 419.848 82.285"><defs><clipPath id="a"><path d="M56.544,11408.3l24.14-71.987H45.4L22.121,11408.3Z" fill="none"/></clipPath><clipPath id="b"><path d="M95.486,11408.3l21.4-71.987H86.007l-24.14,71.987Z" fill="none"/></clipPath></defs><g transform="translate(-22.121 -11336.317)"><path d="M130.271,11352.883c11.937,0,19.046,6.035,19.046,18.24v10.462c0,12.206-7.109,18.241-19.046,18.241H115.786v-46.943Zm-7.779,40.773h7.645c8.181,0,12.473-3.621,12.473-12.205v-10.193c0-8.584-4.292-12.206-12.473-12.206h-7.645Z" fill="#002169"/><path d="M176.7,11352.6c13.145,0,22.158,9.3,22.158,22.814v3.85H161.4c.563,9.577,6.947,15.491,16.148,15.491,7.511,0,11.642-3.849,14.177-9.106l6.291,3.286c-3.286,5.915-8.919,12.205-20.374,12.205-14.271,0-23.753-10.7-23.753-24.6C153.888,11363.116,163.464,11352.6,176.7,11352.6Zm14.647,20.749c-.188-9.106-5.915-14.364-14.647-14.364-8.637,0-14.458,5.352-15.3,14.364Z" fill="#002169"/><path d="M206.837,11372.785v-12.58c0-4.507,2.817-7.323,7.136-7.323h11.735v6.29h-9.2c-1.69,0-2.535.845-2.535,2.723v10.891H228.15v6.291H213.973v39.526h-7.136v-39.526h-13.9v-6.291Z" fill="#002169"/><path d="M255.937,11352.694c12.018,0,20.186,7.7,21.876,17.651l-7.136,1.408c-.844-7.136-6.2-12.394-14.74-12.394-9.482,0-16.43,7.229-16.43,17.558,0,10.421,6.948,17.65,16.618,17.65,9.2,0,13.426-5.727,14.74-12.487l7.135,1.409c-1.877,9.106-9.013,17.65-21.875,17.65-13.708,0-23.848-10.14-23.848-24.223S242.417,11352.694,255.937,11352.694Z" fill="#002169"/><path d="M304.942,11352.694c12.393,0,19.9,7.229,19.9,18.215v28.917H317.8v-7.7H316.49c-2.253,4.413-7.417,9.014-17.275,9.014-9.952,0-17.088-5.258-17.088-13.52,0-8.356,6.854-12.581,17.463-13.614l18.12-1.689v-1.784c0-6.947-4.694-11.36-12.956-11.36s-13.05,4.226-15.679,10.233l-6.29-2.91A23.789,23.789,0,0,1,304.942,11352.694Zm-4.788,42.344c11.078,0,17.556-6.479,17.556-15.961v-.938l-17.181,1.6c-6.384.563-11.173,2.535-11.173,7.7C289.356,11392.409,293.77,11395.038,300.154,11395.038Z" fill="#002169"/><path d="M345.941,11352.883l10.462,44.6h.8l10.461-44.6h13.547v46.943H374.51v-44.6H373.7l-10.395,44.6H350.3l-10.395-44.6h-.8v44.6h-6.706v-46.943Z" fill="#002169"/><path d="M406.428,11352.883c8.584,0,14.485,5.565,14.485,14.083s-6.1,14.083-14.485,14.083H394.893v18.777h-6.706v-46.943Zm-11.535,22h10.8c5.432,0,8.517-2.815,8.517-7.913s-2.951-7.914-8.517-7.914h-10.8Z" fill="#002169"/><path d="M441.969,11350.4l-17.436,52.175h-6.707l17.437-52.175Z" fill="#0071ce"/><g clip-path="url(#a)"><path d="M65.81,11342.166c19.885-4.5,34.335,5.69,36.957,19.015,3.26,16.562-7.15,38.208-33.858,43.464-14.485,2.852-29.215-4.145-32.346-20.053S44.871,11346.9,65.81,11342.166Z" fill="#0071ce"/><path d="M61.819,11351.151c13.446-6.823,25.994-1.9,30.093,7.117,4.967,10.922,2.36,27.326-15.155,35.99-9.791,4.844-22.231,2.475-27.633-8.057S47.662,11358.335,61.819,11351.151Z" fill="#002169" opacity="0.2"/><path d="M61.607,11350.542c12.056-6.295,23.277-1.81,26.922,6.447,4.417,10,2.039,25.059-13.667,33.054-8.779,4.47-19.91,2.33-24.717-7.315S48.911,11357.171,61.607,11350.542Z" fill="#f3f4f9"/><path d="M57.978,11355.2c-2.213,2.877-4.375,5.737-5.277,13.777-1.076,9.587,6.467,15.446,13.855,16.275a17.842,17.842,0,0,0,19.337-15.758c1.1-9.823-1.361-14.277-3.279-16.277C74.582,11344.842,61.736,11350.314,57.978,11355.2Z" fill="#dce3eb"/><path d="M75.2,11383.923l-6.31-.759.009-.07a24.488,24.488,0,0,0,.053-7.539l6.2-1.4a29.7,29.7,0,0,1,.058,9.7Z" fill="#f3f4f9"/><path d="M73.884,11349.481c-5.905-.663-18.031,2.578-19.422,14.972-.758,6.759,4.947,11.307,11.4,12.031s17.759-4.354,18.953-15C85.643,11354.066,79.013,11350.057,73.884,11349.481Z" fill="#f3f4f9"/><path d="M52.891,11367.484q-.1.715-.19,1.492c-1.076,9.587,6.467,15.446,13.855,16.275a17.842,17.842,0,0,0,19.337-15.758q.143-1.279.209-2.438h0c-1.435,9.285-10.115,14.72-18.531,13.777-8.477-.949-15.437-6.431-14.68-13.349Z" fill="#0071ce"/></g><g clip-path="url(#b)"><path d="M65.81,11342.166c19.885-4.5,34.335,5.69,36.957,19.015,3.26,16.562-7.15,38.208-33.858,43.464-14.485,2.852-29.215-4.145-32.346-20.053S44.871,11346.9,65.81,11342.166Z" fill="#0071ce"/><path d="M61.819,11351.151c13.446-6.823,25.994-1.9,30.093,7.117,4.967,10.922,2.36,27.326-15.155,35.99-9.791,4.844-22.231,2.475-27.633-8.057S47.662,11358.335,61.819,11351.151Z" fill="#002169" opacity="0.2"/><path d="M61.607,11350.542c12.056-6.295,23.277-1.81,26.922,6.447,4.417,10,2.039,25.059-13.667,33.054-8.779,4.47-19.91,2.33-24.717-7.315S48.911,11357.171,61.607,11350.542Z" fill="#333132"/><path d="M57.978,11355.2c-2.213,2.877-4.375,5.737-5.277,13.777-1.076,9.587,6.467,15.446,13.855,16.275a17.842,17.842,0,0,0,19.337-15.758c1.1-9.823-1.361-14.277-3.279-16.277C74.582,11344.842,61.736,11350.314,57.978,11355.2Z" fill="#231f20"/><path d="M75.2,11383.923l-6.31-.759.009-.07a24.488,24.488,0,0,0,.053-7.539l6.2-1.4a29.7,29.7,0,0,1,.058,9.7Z" fill="#333132"/><path d="M73.884,11349.481c-5.905-.663-18.031,2.578-19.422,14.972-.758,6.759,4.947,11.307,11.4,12.031s17.759-4.354,18.953-15C85.643,11354.066,79.013,11350.057,73.884,11349.481Z" fill="#333132"/><path d="M52.891,11367.484q-.1.715-.19,1.492c-1.076,9.587,6.467,15.446,13.855,16.275a17.842,17.842,0,0,0,19.337-15.758q.143-1.279.209-2.438h0c-1.435,9.285-10.115,14.72-18.531,13.777-8.477-.949-15.437-6.431-14.68-13.349Z" fill="#0071ce"/></g></g></svg>